<svg width="127" height="28" viewBox="0 0 127 28" fill="none" xmlns="http://www.w3.org/2000/svg">
<path d="M5.58411 23.1259C4.72882 22.7717 4.32259 21.7913 4.67678 20.936L10.9525 5.7814C11.3067 4.92611 12.2871 4.51988 13.1424 4.87407C13.9977 5.22826 14.404 6.20873 14.0498 7.06402L7.77406 22.2186C7.41988 23.0739 6.4394 23.4801 5.58411 23.1259ZM1.14468 12.4108C0.289389 12.0566 -0.116837 11.0761 0.23735 10.2208C0.591537 9.36554 1.57201 8.95931 2.4273 9.3135L17.5819 15.5892C18.4372 15.9434 18.8434 16.9239 18.4892 17.7792C18.135 18.6344 17.1545 19.0407 16.2992 18.6865L1.14468 12.4108Z" fill="#FB685B"/>
<path d="M0.242211 17.7859C-0.112823 16.931 0.292431 15.9501 1.14737 15.5951L16.2957 9.30439C17.1507 8.94936 18.1315 9.35462 18.4866 10.2096C18.8416 11.0645 18.4363 12.0454 17.5814 12.4004L2.43306 18.6911C1.57812 19.0461 0.597244 18.6409 0.242211 17.7859ZM4.67104 7.06642C4.316 6.21148 4.72126 5.2306 5.5762 4.87557C6.43114 4.52054 7.41201 4.92579 7.76705 5.78073L14.0577 20.9291C14.4128 21.784 14.0075 22.7649 13.1526 23.1199C12.2976 23.475 11.3168 23.0697 10.9617 22.2148L4.67104 7.06642Z" fill="#FB685B"/>
<path d="M62.6504 21.886C61.8116 21.886 61.1316 21.206 61.1316 20.3672V11.5593L61.942 12.3929H58.3994C57.581 12.3929 56.9176 11.7294 56.9176 10.911C56.9176 10.0926 57.581 9.42915 58.3994 9.42915H67.4526C68.271 9.42915 68.9345 10.0926 68.9345 10.911C68.9345 11.7294 68.271 12.3929 67.4526 12.3929H63.9101L64.7205 11.5593V20.3672C64.7205 21.206 64.0405 21.886 63.2017 21.886H62.6504Z" fill="#002033"/>
<path d="M33.6482 22.1635C31.9657 22.1635 30.4453 21.8008 29.0869 21.0753C27.744 20.3498 26.6866 19.3542 25.9148 18.0884C25.1585 16.8072 24.7803 15.3717 24.7803 13.7818C24.7803 12.1919 25.1585 10.764 25.9148 9.49828C26.6866 8.21709 27.744 7.21375 29.0869 6.48826C30.4453 5.76277 31.9657 5.40002 33.6482 5.40002C35.3308 5.40002 36.8435 5.76277 38.1864 6.48826C39.5293 7.21375 40.5867 8.21709 41.3585 9.49828C42.1303 10.764 42.5162 12.1919 42.5162 13.7818C42.5162 15.3717 42.1303 16.8072 41.3585 18.0884C40.5867 19.3542 39.5293 20.3498 38.1864 21.0753C36.8435 21.8008 35.3308 22.1635 33.6482 22.1635ZM33.6482 18.9683C34.6053 18.9683 35.4697 18.7521 36.2415 18.3199C37.0133 17.8723 37.6153 17.2549 38.0475 16.4676C38.4951 15.6804 38.719 14.7851 38.719 13.7818C38.719 12.7784 38.4951 11.8831 38.0475 11.0959C37.6153 10.3087 37.0133 9.69895 36.2415 9.26674C35.4697 8.81909 34.6053 8.59527 33.6482 8.59527C32.6912 8.59527 31.8268 8.81909 31.055 9.26674C30.2832 9.69895 29.6735 10.3087 29.2258 11.0959C28.7936 11.8831 28.5775 12.7784 28.5775 13.7818C28.5775 14.7851 28.7936 15.6804 29.2258 16.4676C29.6735 17.2549 30.2832 17.8723 31.055 18.3199C31.8268 18.7521 32.6912 18.9683 33.6482 18.9683Z" fill="#002033"/>
<path d="M49.9208 17.1622H48.0453V20.3669C48.0453 21.2057 47.3653 21.8857 46.5265 21.8857H45.9521C45.1133 21.8857 44.4333 21.2057 44.4333 20.3669V10.9476C44.4333 10.1088 45.1133 9.42881 45.9521 9.42881H46.5265C47.3653 9.42881 48.0453 10.1088 48.0453 10.9476V14.268H49.9902L52.9173 10.0778C53.2015 9.67113 53.6663 9.42881 54.1624 9.42881H54.2283C55.4702 9.42881 56.1872 10.8383 55.4558 11.8421L52.8613 15.4025L55.7892 19.4811C56.5105 20.486 55.7924 21.8857 54.5554 21.8857H54.0419C53.5484 21.8857 53.0857 21.6459 52.8011 21.2427L49.9208 17.1622Z" fill="#002033"/>
<path d="M76.0947 22.0709C74.7827 22.0709 73.6018 21.8008 72.5522 21.2605C71.518 20.7048 70.7076 19.9407 70.121 18.9683C69.5344 17.9958 69.2411 16.8921 69.2411 15.6572C69.2411 14.4224 69.5344 13.3187 70.121 12.3462C70.7076 11.3737 71.518 10.6174 72.5522 10.0771C73.6018 9.52143 74.7827 9.24358 76.0947 9.24358C77.4068 9.24358 78.5799 9.52143 79.6141 10.0771C80.6483 10.6174 81.4587 11.3737 82.0453 12.3462C82.6319 13.3187 82.9251 14.4224 82.9251 15.6572C82.9251 16.8921 82.6319 17.9958 82.0453 18.9683C81.4587 19.9407 80.6483 20.7048 79.6141 21.2605C78.5799 21.8008 77.4068 22.0709 76.0947 22.0709ZM76.0947 19.1072C77.0209 19.1072 77.7772 18.7985 78.3638 18.181C78.9658 17.5481 79.2668 16.7069 79.2668 15.6572C79.2668 14.6076 78.9658 13.774 78.3638 13.1566C77.7772 12.5237 77.0209 12.2073 76.0947 12.2073C75.1686 12.2073 74.4045 12.5237 73.8025 13.1566C73.2005 13.774 72.8995 14.6076 72.8995 15.6572C72.8995 16.7069 73.2005 17.5481 73.8025 18.181C74.4045 18.7985 75.1686 19.1072 76.0947 19.1072Z" fill="#002033"/>
<path d="M95.5834 9.42881C96.4222 9.42881 97.1022 10.1088 97.1022 10.9476V20.3668C97.1022 21.2057 96.4222 21.8857 95.5834 21.8857H95.009C94.1702 21.8857 93.4902 21.2057 93.4902 20.3669V13.1519C93.4902 12.7325 93.1502 12.3925 92.7308 12.3925H89.0631C88.6437 12.3925 88.3037 12.7325 88.3037 13.1519V20.3669C88.3037 21.2057 87.6237 21.8857 86.7849 21.8857H86.2337C85.3949 21.8857 84.7149 21.2057 84.7149 20.3669V10.9476C84.7149 10.1088 85.3949 9.42881 86.2337 9.42881H95.5834Z" fill="#002033"/>
<path d="M110.832 9.42881C111.671 9.42881 112.351 10.1088 112.351 10.9476V19.8018C112.351 22.0863 111.772 23.7843 110.614 24.8957C109.457 26.0071 107.774 26.5628 105.567 26.5628C104.394 26.5628 103.282 26.4161 102.232 26.1228C101.655 25.9591 101.128 25.7545 100.652 25.509C100.022 25.1844 99.8686 24.3932 100.212 23.7733C100.649 22.9843 101.709 22.7877 102.547 23.1208C102.685 23.1757 102.827 23.227 102.973 23.2749C103.73 23.5219 104.494 23.6454 105.266 23.6454C106.47 23.6454 107.35 23.3675 107.905 22.8118C108.461 22.2561 108.739 21.4071 108.739 20.2649V19.8481C108.276 20.3112 107.728 20.6662 107.095 20.9132C106.462 21.1602 105.783 21.2836 105.057 21.2836C103.421 21.2836 102.124 20.8206 101.167 19.8944C100.21 18.9528 99.7318 17.5481 99.7318 15.6804V10.9476C99.7318 10.1088 100.412 9.42881 101.251 9.42881H101.825C102.664 9.42881 103.344 10.1088 103.344 10.9476V15.1478C103.344 17.17 104.185 18.181 105.868 18.181C106.732 18.181 107.427 17.9032 107.951 17.3475C108.476 16.7763 108.739 15.9351 108.739 14.8237V10.9476C108.739 10.1088 109.419 9.42881 110.258 9.42881H110.832Z" fill="#002033"/>
<path d="M120.999 22.0709C119.672 22.0709 118.476 21.8008 117.41 21.2605C116.361 20.7048 115.535 19.9407 114.933 18.9683C114.346 17.9958 114.053 16.8921 114.053 15.6572C114.053 14.4224 114.346 13.3187 114.933 12.3462C115.535 11.3737 116.361 10.6174 117.41 10.0771C118.476 9.52143 119.672 9.24358 120.999 9.24358C122.311 9.24358 123.454 9.52143 124.426 10.0771C124.986 10.3831 125.459 10.7659 125.845 11.2255C126.355 11.8321 126.041 12.7048 125.343 13.0798L125.085 13.2185C124.358 13.6089 123.484 13.2935 122.826 12.7957C122.307 12.4034 121.691 12.2073 120.976 12.2073C120.035 12.2073 119.255 12.516 118.638 13.1335C118.02 13.7509 117.711 14.5922 117.711 15.6572C117.711 16.7223 118.02 17.5636 118.638 18.181C119.255 18.7985 120.035 19.1072 120.976 19.1072C121.688 19.1072 122.3 18.9174 122.812 18.5378C123.482 18.0405 124.369 17.7165 125.102 18.1163L125.341 18.2465C126.039 18.6273 126.345 19.5059 125.825 20.1081C125.442 20.5515 124.976 20.9279 124.426 21.2373C123.454 21.793 122.311 22.0709 120.999 22.0709Z" fill="#002033"/>
</svg>
